HIERARCHY
ROOT joint_0
{
	OFFSET 0.000000 0.000000 0.000000
	CHANNELS 6 Xposition Yposition Zposition Zrotation Yrotation Xrotation 
	JOINT joint_1
	{
		OFFSET 0.511002 1.944000 108.288940
		CHANNELS 3 Zrotation Yrotation Xrotation
		JOINT joint_2
		{
			OFFSET -9.074005 1.512993 98.440063
			CHANNELS 3 Zrotation Yrotation Xrotation
			JOINT joint_3
			{
				OFFSET -8.590996 1.815002 98.366943
				CHANNELS 3 Zrotation Yrotation Xrotation
				JOINT joint_4
				{
					OFFSET 2.489998 3.531998 136.462036
					CHANNELS 3 Zrotation Yrotation Xrotation
					JOINT joint_5
					{
						OFFSET 22.708000 2.955002 80.357056
						CHANNELS 3 Zrotation Yrotation Xrotation
						End Site
						{
							OFFSET 0.000000 0.000000 0.000000
						}
					}
				}
				JOINT joint_6
				{
					OFFSET 2.860001 -27.684998 77.234009
					CHANNELS 3 Zrotation Yrotation Xrotation
					JOINT joint_7
					{
						OFFSET 5.449997 -131.244003 -18.851929
						CHANNELS 3 Zrotation Yrotation Xrotation
						JOINT joint_8
						{
							OFFSET 35.757000 -24.661995 -264.074097
							CHANNELS 3 Zrotation Yrotation Xrotation
							JOINT joint_9
							{
								OFFSET 49.392001 -1.747002 -239.960938
								CHANNELS 3 Zrotation Yrotation Xrotation
								End Site
								{
									OFFSET 0.000000 0.000000 0.000000
								}
							}
						}
					}
				}
				JOINT joint_10
				{
					OFFSET -0.127998 31.625000 75.753052
					CHANNELS 3 Zrotation Yrotation Xrotation
					JOINT joint_11
					{
						OFFSET -5.618004 131.132996 -19.557007
						CHANNELS 3 Zrotation Yrotation Xrotation
						JOINT joint_12
						{
							OFFSET 46.488998 30.127991 -261.826050
							CHANNELS 3 Zrotation Yrotation Xrotation
							JOINT joint_13
							{
								OFFSET 66.021003 0.474030 -235.934937
								CHANNELS 3 Zrotation Yrotation Xrotation
								End Site
								{
									OFFSET 0.000000 0.000000 0.000000
								}
							}
						}
					}
				}
			}
		}
	}
	JOINT joint_14
	{
		OFFSET 15.887001 -78.871004 -94.561035
		CHANNELS 3 Zrotation Yrotation Xrotation
		JOINT joint_15
		{
			OFFSET -4.133003 6.714001 -473.615967
			CHANNELS 3 Zrotation Yrotation Xrotation
			JOINT joint_16
			{
				OFFSET -19.541000 5.340000 -399.613007
				CHANNELS 3 Zrotation Yrotation Xrotation
				JOINT joint_17
				{
					OFFSET 164.317001 41.657999 -73.195000
					CHANNELS 3 Zrotation Yrotation Xrotation
					End Site
					{
						OFFSET 0.000000 0.000000 0.000000
					}
				}
			}
		}
	}
	JOINT joint_18
	{
		OFFSET 6.513000 77.960991 -96.406982
		CHANNELS 3 Zrotation Yrotation Xrotation
		JOINT joint_19
		{
			OFFSET -10.660004 -8.518997 -473.485016
			CHANNELS 3 Zrotation Yrotation Xrotation
			JOINT joint_20
			{
				OFFSET -36.967995 -11.098999 -398.260010
				CHANNELS 3 Zrotation Yrotation Xrotation
				JOINT joint_21
				{
					OFFSET 166.067997 30.363998 -74.785000
					CHANNELS 3 Zrotation Yrotation Xrotation
					End Site
					{
						OFFSET 0.000000 0.000000 0.000000
					}
				}
			}
		}
	}
}
MOTION
Frames: 13
Frame Time: 0.016667
-57.493999 109.642998 1059.576050 -3.826338 4.042054 0.233685 1.087006 3.060633 2.123065 1.002845 -4.497687 -0.578938 0.926438 3.179610 -0.037895 -0.210826 3.663492 0.327145 0.000000 0.000000 0.000000 1.480365 0.083187 -1.239942 -1.035009 0.266472 -4.516402 -0.083638 -4.090342 -0.602027 0.000000 0.000000 0.000000 -4.800992 2.387720 -0.511166 1.468858 3.442206 2.176139 0.857212 -3.123489 3.039921 0.000000 0.000000 0.000000 -2.058415 -4.623159 -3.255886 -2.049978 1.900142 -0.237766 -2.087120 -1.865691 -0.457666 0.000000 0.000000 0.000000 -0.035787 -7.548989 2.331648 -0.235395 2.947809 -0.709003 -0.242541 0.946214 -0.282674 0.000000 0.000000 0.000000 
-56.700001 109.627998 1059.531982 -3.843535 4.147813 0.225892 1.083843 3.063938 2.123751 0.999564 -4.530977 -0.582371 0.923209 3.180566 -0.034372 -0.207645 3.645526 0.319517 0.000000 0.000000 0.000000 1.499411 0.107333 -1.220157 -1.041297 0.289714 -4.573439 -0.071716 -4.101611 -0.559657 0.000000 0.000000 0.000000 -4.819579 2.399474 -0.546268 1.476212 3.460754 2.236760 0.850029 -3.132588 3.019932 0.000000 0.000000 0.000000 -2.053144 -4.679355 -3.251599 -2.047880 1.869896 -0.230958 -2.084102 -1.859728 -0.457803 0.000000 0.000000 0.000000 -0.031456 -7.590851 2.343682 -0.230276 2.897341 -0.718740 -0.240931 0.946991 -0.282083 0.000000 0.000000 0.000000 
-55.827000 109.616997 1059.480957 -3.858162 4.277217 0.215740 1.079310 3.066828 2.132213 0.993996 -4.572599 -0.589933 0.918818 3.183466 -0.029519 -0.204326 3.623780 0.312007 0.000000 0.000000 0.000000 1.521963 0.134486 -1.193284 -1.048259 0.314997 -4.650834 -0.054901 -4.115164 -0.499757 0.000000 0.000000 0.000000 -4.841214 2.413731 -0.588310 1.484179 3.482910 2.308453 0.839410 -3.146240 2.990416 0.000000 0.000000 0.000000 -2.048913 -4.751647 -3.245694 -2.047770 1.830612 -0.222757 -2.082918 -1.857082 -0.457933 0.000000 0.000000 0.000000 -0.028080 -7.655192 2.357709 -0.225907 2.850287 -0.727450 -0.239689 0.940446 -0.280327 0.000000 0.000000 0.000000 
-54.770000 109.661003 1059.421021 -3.858785 4.449229 0.208289 1.071802 3.073230 2.146717 0.984958 -4.627959 -0.599148 0.909403 3.185003 -0.027830 -0.197517 3.609887 0.293586 0.000000 0.000000 0.000000 1.548199 0.163990 -1.151147 -1.058814 0.342935 -4.728957 -0.045174 -4.120726 -0.464969 0.000000 0.000000 0.000000 -4.872911 2.434585 -0.650320 1.496319 3.515142 2.395851 0.830330 -3.160192 2.965547 0.000000 0.000000 0.000000 -2.049274 -4.845670 -3.257289 -2.052384 1.769107 -0.193463 -2.084890 -1.871701 -0.455202 0.000000 0.000000 0.000000 -0.028763 -7.775768 2.360019 -0.224093 2.848373 -0.724658 -0.237114 0.892067 -0.270353 0.000000 0.000000 0.000000 
-53.612999 109.775002 1059.357056 -3.840736 4.661591 0.207790 1.058491 3.078243 2.162708 0.972115 -4.693639 -0.600121 0.893286 3.187427 -0.036665 -0.185577 3.601641 0.259730 0.000000 0.000000 0.000000 1.571472 0.186545 -1.099266 -1.072406 0.365565 -4.773839 -0.056772 -4.093118 -0.505283 0.000000 0.000000 0.000000 -4.920132 2.453570 -0.734851 1.511835 3.549934 2.500639 0.825673 -3.160243 2.951650 0.000000 0.000000 0.000000 -2.058150 -4.958822 -3.296782 -2.064993 1.674266 -0.131333 -2.091979 -1.893639 -0.452924 0.000000 0.000000 0.000000 -0.033398 -7.953224 2.342712 -0.223872 2.885120 -0.701185 -0.231446 0.816578 -0.254038 0.000000 0.000000 0.000000 
-52.271999 109.945000 1059.282959 -3.807713 4.917713 0.211321 1.042024 3.083965 2.180526 0.955296 -4.771094 -0.595666 0.872694 3.189160 -0.052871 -0.170355 3.596616 0.216085 0.000000 0.000000 0.000000 1.597265 0.210853 -1.032805 -1.089318 0.390226 -4.817533 -0.075775 -4.056543 -0.571838 0.000000 0.000000 0.000000 -4.978630 2.478433 -0.837712 1.531320 3.594207 2.619924 0.822584 -3.160546 2.942475 0.000000 0.000000 0.000000 -2.072110 -5.094820 -3.354998 -2.082740 1.557025 -0.047973 -2.102641 -1.932858 -0.447966 0.000000 0.000000 0.000000 -0.042379 -8.188380 2.312324 -0.226269 2.967212 -0.665893 -0.224482 0.700543 -0.229756 0.000000 0.000000 0.000000 
-50.387001 110.172997 1059.177979 -3.760167 5.247522 0.212938 1.025137 3.101176 2.199490 0.938339 -4.877883 -0.592722 0.853016 3.189639 -0.067577 -0.155410 3.599978 0.172388 0.000000 0.000000 0.000000 1.639514 0.262348 -0.932008 -1.112888 0.439238 -4.936410 -0.071716 -4.073415 -0.558186 0.000000 0.000000 0.000000 -5.053300 2.537821 -0.961410 1.560643 3.678357 2.752897 0.815294 -3.206085 2.927961 0.000000 0.000000 0.000000 -2.084777 -5.271587 -3.420759 -2.100468 1.438521 0.041983 -2.114218 -2.034160 -0.428120 0.000000 0.000000 0.000000 -0.060026 -8.518500 2.277282 -0.236613 3.157870 -0.633886 -0.220222 0.467974 -0.185487 0.000000 0.000000 0.000000 
-48.076000 110.466003 1059.026001 -3.689385 5.648118 0.210205 1.002179 3.126903 2.228945 0.916100 -5.008242 -0.596087 0.825957 3.185970 -0.079778 -0.143283 3.631543 0.134136 0.000000 0.000000 0.000000 1.681564 0.326927 -0.765486 -1.140021 0.490751 -5.193693 -0.028117 -4.159312 -0.405713 0.000000 0.000000 0.000000 -5.096288 2.607773 -1.142882 1.594536 3.772189 2.932295 0.803611 -3.248889 2.899930 0.000000 0.000000 0.000000 -2.095048 -5.471074 -3.491585 -2.117073 1.277856 0.140529 -2.124836 -2.193471 -0.393565 0.000000 0.000000 0.000000 -0.091453 -8.978681 2.241916 -0.261003 3.525124 -0.610937 -0.222390 0.074423 -0.114822 0.000000 0.000000 0.000000 
-45.222000 110.817001 1058.843994 -3.604579 6.123636 0.205105 0.979868 3.160576 2.263905 0.892765 -5.161166 -0.606190 0.799295 3.176895 -0.087393 -0.130707 3.661587 0.094646 0.000000 0.000000 0.000000 1.742385 0.418261 -0.566538 -1.173858 0.566633 -5.525003 0.038298 -4.298682 -0.173857 0.000000 0.000000 0.000000 -5.153166 2.711193 -1.349177 1.638666 3.904793 3.127966 0.788246 -3.334989 2.867718 0.000000 0.000000 0.000000 -2.103822 -5.712360 -3.568508 -2.133686 1.114809 0.244952 -2.136356 -2.410540 -0.345182 0.000000 0.000000 0.000000 -0.131215 -9.534761 2.203038 -0.293217 3.999423 -0.591088 -0.227414 -0.426786 -0.025845 0.000000 0.000000 0.000000 
-41.111000 111.212997 1058.651978 -3.530840 6.719995 0.199552 0.977348 3.203897 2.280461 0.890839 -5.353415 -0.618234 0.794796 3.167982 -0.088756 -0.110664 3.599677 0.042882 0.000000 0.000000 0.000000 1.890221 0.600877 -0.407474 -1.228145 0.752860 -5.814105 0.107350 -4.505331 0.064981 0.000000 0.000000 0.000000 -5.363620 2.944505 -1.476965 1.716796 4.193270 3.244743 0.765896 -3.649213 2.849950 0.000000 0.000000 0.000000 -2.107768 -6.074920 -3.647130 -2.149030 1.092407 0.332225 -2.152825 -2.739978 -0.271306 0.000000 0.000000 0.000000 -0.168931 -10.127338 2.155873 -0.320871 4.439944 -0.570500 -0.228737 -0.969345 0.072321 0.000000 0.000000 0.000000 
-35.813000 111.644997 1058.495972 -3.483686 7.455433 0.190988 1.006887 3.295281 2.268400 0.921660 -5.585272 -0.625418 0.819883 3.140383 -0.085665 -0.082552 3.421468 -0.020084 0.000000 0.000000 0.000000 2.136238 0.874128 -0.223788 -1.310087 1.046068 -6.109166 0.179300 -4.791897 0.312365 0.000000 0.000000 0.000000 -5.738989 3.317065 -1.549401 1.825242 4.650374 3.300909 0.724336 -4.161585 2.806035 0.000000 0.000000 0.000000 -2.102465 -6.571374 -3.723295 -2.160231 1.179592 0.398520 -2.170364 -3.141537 -0.180141 0.000000 0.000000 0.000000 -0.203438 -10.768618 2.100662 -0.342334 4.827351 -0.541996 -0.224363 -1.546542 0.179338 0.000000 0.000000 0.000000 
-29.259001 112.122002 1058.332031 -3.449373 8.313508 0.183424 1.056978 3.384098 2.228267 0.974606 -5.826548 -0.622964 0.866583 3.094379 -0.083777 -0.047974 3.127477 -0.089332 0.000000 0.000000 0.000000 2.466274 1.236924 -0.063601 -1.415371 1.447905 -6.364750 0.251652 -5.144205 0.560802 0.000000 0.000000 0.000000 -6.266563 3.814610 -1.588190 1.973616 5.262736 3.313535 0.679090 -4.893357 2.783299 0.000000 0.000000 0.000000 -2.091207 -7.191794 -3.803907 -2.169166 1.407311 0.449037 -2.191869 -3.642555 -0.066225 0.000000 0.000000 0.000000 -0.235354 -11.447441 2.035497 -0.358211 5.178122 -0.512459 -0.215439 -2.151965 0.293516 0.000000 0.000000 0.000000 
-20.535000 112.652000 1058.045044 -3.407389 9.295066 0.191922 1.112424 3.337267 2.141328 1.039162 -6.058731 -0.603755 0.923001 3.062410 -0.084803 -0.005684 2.689404 -0.165300 0.000000 0.000000 0.000000 2.914615 1.756933 -0.141237 -1.549147 2.056154 -6.342867 0.300408 -5.533838 0.729569 0.000000 0.000000 0.000000 -7.045124 4.502385 -1.506235 2.215808 6.115394 3.189955 0.674653 -6.107087 2.939117 0.000000 0.000000 0.000000 -2.083067 -7.990078 -3.904619 -2.182727 2.012328 0.478392 -2.233042 -4.390665 0.099947 0.000000 0.000000 0.000000 -0.260438 -12.078940 1.950150 -0.361841 5.408478 -0.498960 -0.202232 -2.716358 0.402116 0.000000 0.000000 0.000000 
